<svg width="89" height="30" viewBox="0 0 89 30" fill="none" xmlns="http://www.w3.org/2000/svg">
<g filter="url(#filter0_d_26_33)">
<path d="M4.46013 21V0.391998H9.61213V17.032H19.3401V21H4.46013ZM30.6546 21.32C27.3053 21.32 24.756 20.4667 23.0066 18.76C21.2573 17.0533 20.3826 14.3973 20.3826 10.792C20.3826 6.97333 21.2573 4.232 23.0066 2.568C24.756 0.903999 27.3053 0.0719986 30.6546 0.0719986C34.004 0.0719986 36.5533 0.903999 38.3026 2.568C40.052 4.232 40.9266 6.97333 40.9266 10.792C40.9266 14.3973 40.052 17.0533 38.3026 18.76C36.5533 20.4667 34.004 21.32 30.6546 21.32ZM30.6546 16.936C32.3826 16.936 33.6413 16.4453 34.4306 15.464C35.2413 14.4613 35.6466 12.904 35.6466 10.792C35.6466 8.488 35.2413 6.86667 34.4306 5.928C33.6413 4.968 32.3826 4.488 30.6546 4.488C28.9053 4.488 27.6253 4.968 26.8146 5.928C26.0253 6.86667 25.6306 8.488 25.6306 10.792C25.6306 12.904 26.0253 14.4613 26.8146 15.464C27.6253 16.4453 28.9053 16.936 30.6546 16.936ZM73.9046 21.32C70.5553 21.32 68.006 20.4667 66.2566 18.76C64.5073 17.0533 63.6326 14.3973 63.6326 10.792C63.6326 6.97333 64.5073 4.232 66.2566 2.568C68.006 0.903999 70.5553 0.0719986 73.9046 0.0719986C77.254 0.0719986 79.8033 0.903999 81.5526 2.568C83.302 4.232 84.1766 6.97333 84.1766 10.792C84.1766 14.3973 83.302 17.0533 81.5526 18.76C79.8033 20.4667 77.254 21.32 73.9046 21.32ZM73.9046 16.936C75.6326 16.936 76.8913 16.4453 77.6806 15.464C78.4913 14.4613 78.8966 12.904 78.8966 10.792C78.8966 8.488 78.4913 6.86667 77.6806 5.928C76.8913 4.968 75.6326 4.488 73.9046 4.488C72.1553 4.488 70.8753 4.968 70.0646 5.928C69.2753 6.86667 68.8806 8.488 68.8806 10.792C68.8806 12.904 69.2753 14.4613 70.0646 15.464C70.8753 16.4453 72.1553 16.936 73.9046 16.936Z" fill="white"/>
<path d="M53.8259 21.32C50.2632 21.32 47.5539 20.424 45.6979 18.632C43.8419 16.8187 42.9139 14.2693 42.9139 10.984C42.9139 7.54933 43.8632 4.872 45.7619 2.952C47.6605 1.032 50.4552 0.0719986 54.1459 0.0719986C55.4045 0.0719986 56.5352 0.146666 57.5379 0.296C58.5619 0.445332 59.5325 0.669332 60.4499 0.967999V5.384C59.5325 5.04267 58.5725 4.808 57.5699 4.68C56.5885 4.552 55.5752 4.488 54.5299 4.488C52.3112 4.488 50.6899 5.02133 49.6659 6.088C48.6632 7.13333 48.1619 8.76533 48.1619 10.984C48.1619 13.0107 48.6419 14.5147 49.6019 15.496C50.5619 16.456 51.9805 16.936 53.8579 16.936C55.0952 16.936 56.2472 16.7653 57.3139 16.424V12.52H52.8659V9.288H61.6339V19.496C60.9085 19.9653 59.8952 20.392 58.5939 20.776C57.3139 21.1387 55.7245 21.32 53.8259 21.32Z" fill="#B5FFE1"/>
</g>
<defs>
<filter id="filter0_d_26_33" x="0.460114" y="0.071991" width="87.7165" height="29.248" filterUnits="userSpaceOnUse" color-interpolation-filters="sRGB">
<feFlood flood-opacity="0" result="BackgroundImageFix"/>
<feColorMatrix in="SourceAlpha" type="matrix" values="0 0 0 0 0 0 0 0 0 0 0 0 0 0 0 0 0 0 127 0" result="hardAlpha"/>
<feOffset dy="4"/>
<feGaussianBlur stdDeviation="2"/>
<feComposite in2="hardAlpha" operator="out"/>
<feColorMatrix type="matrix" values="0 0 0 0 0 0 0 0 0 0 0 0 0 0 0 0 0 0 0.25 0"/>
<feBlend mode="normal" in2="BackgroundImageFix" result="effect1_dropShadow_26_33"/>
<feBlend mode="normal" in="SourceGraphic" in2="effect1_dropShadow_26_33" result="shape"/>
</filter>
</defs>
</svg>
